<?xml version="1.0" encoding="UTF-8"?>
<svg width="344px" height="169px" viewBox="0 0 344 169" version="1.1" xmlns="http://www.w3.org/2000/svg" xmlns:xlink="http://www.w3.org/1999/xlink">
    <title>Group</title>
    <g id="Page-1" stroke="none" stroke-width="1" fill="none" fill-rule="evenodd">
        <g id="Group" transform="translate(0.876836, 0.279109)" fill="#000000" fill-rule="nonzero">
            <path d="M126.882322,115.870891 C141.732322,115.870891 154.782322,102.070891 160.032322,89.0208912 C169.03768,72.7874454 159.882322,63.2208912 155.532322,60.5208912 C152.532322,58.7208912 149.832322,58.2708912 146.382322,58.2708912 C137.532322,58.2708912 122.382322,67.2708912 114.132322,78.2208912 C104.382322,91.2708912 105.432322,101.470891 112.182322,109.120891 C116.082322,113.470891 120.432322,115.870891 126.882322,115.870891 Z M123.673279,103.500934 C119.50166,98.3788115 130.000635,85.2238738 139.450635,77.5738738 C144.445954,74.0325501 150.298976,70.1138199 152.559906,71.8425627 C156.385102,74.7673674 152.559906,81.8727294 147.588776,87.8366847 C141.738776,95.9366847 130.000635,107.223468 123.673279,103.500934 Z M168.182322,120.170891 C169.232322,120.170891 170.132322,119.570891 171.932322,117.770891 C175.532322,114.170891 180.605216,108.170891 188.132322,95.5708912 C192.747886,89.7208912 201.482322,82.3708912 209.740653,79.4460224 C206.732322,86.4208912 198.182322,91.9708912 194.432322,99.9208912 C192.032322,105.170891 193.532322,109.370891 197.132322,113.420891 C199.982322,116.570891 203.132322,118.370891 206.732322,118.370891 C219.632322,118.370891 235.532322,99.6208912 241.082322,90.4708912 L241.532322,89.7208912 C242.132322,88.6708912 242.282322,87.9208912 241.232322,86.8708912 L240.782322,86.4208912 C240.332322,85.9708912 240.032322,86.1208912 238.982322,87.4708912 L238.532322,88.0708912 C228.182322,101.870891 219.782322,107.420891 212.732322,109.070891 C214.532322,102.020891 223.982322,90.1708912 227.582322,82.3708912 C229.982322,77.2708912 229.832322,74.5708912 226.382322,71.4208912 C224.282322,69.4708912 221.882322,68.4208912 219.332322,68.4208912 C216.032322,68.4208912 209.432322,71.2708912 201.482322,75.4708912 C202.832322,72.1708912 201.632322,69.9208912 199.232322,67.5208912 C195.482322,63.9208912 190.082322,61.3708912 186.932322,61.3708912 C186.032322,61.3708912 185.432322,61.6708912 184.832322,62.7208912 C182.882322,66.1708912 175.982322,75.6208912 166.532322,88.0708912 C160.232322,96.3208912 155.732322,103.820891 155.732322,108.170891 C155.732322,111.770891 157.832322,114.620891 160.532322,116.720891 C162.932322,118.670891 165.632322,120.170891 168.182322,120.170891 Z M238.682322,126.170891 C243.632322,126.170891 247.532322,124.370891 250.832322,121.970891 C256.382322,117.770891 258.932322,112.820891 258.932322,107.870891 C258.932322,97.8208912 249.932322,94.0708912 249.932322,89.1208912 C249.932322,86.1208912 252.932322,84.7708912 258.482322,82.8208912 C268.382322,79.3708912 273.032322,76.0708912 273.032322,70.8208912 C273.032322,68.8708912 272.132322,65.4208912 268.832322,61.2208912 C266.582322,58.3708912 264.932322,57.9208912 264.032322,58.6708912 C254.132322,64.9708912 237.782322,66.7708912 237.782322,80.7208912 C237.782322,89.7208912 246.482322,91.9708912 246.482322,97.3708912 C246.482322,104.870891 233.432322,113.570891 224.732322,116.420891 C223.232322,116.870891 223.832322,119.120891 226.532322,121.520891 C229.832322,124.370891 233.582322,126.170891 238.682322,126.170891 Z M247.423344,167.170891 C264.373344,167.170891 283.873344,152.620891 302.473344,126.070891 C309.973344,125.020891 327.124858,123.370891 335.374858,122.770891 C337.474858,122.620891 339.274858,122.020891 340.174858,120.670891 C341.074858,119.320891 341.824858,118.720891 342.574858,117.370891 C342.874858,116.770891 342.274858,116.320891 341.074858,116.320891 C334.924858,116.320891 317.023344,117.370891 307.723344,118.270891 C317.173344,103.720891 325.873344,89.3208912 330.823344,79.8708912 C333.223344,75.5208912 331.423344,72.5208912 326.323344,70.8708912 C323.473344,69.9708912 321.373344,68.9208912 319.873344,68.9208912 C318.373344,68.9208912 317.623344,69.8208912 314.023344,74.7708912 C302.773344,90.2208912 294.373344,98.1708912 287.623344,102.220891 C290.023344,96.5208912 293.773344,89.3208912 296.323344,83.3208912 C300.673344,73.2708912 299.023344,68.9208912 292.573344,66.2208912 C290.023344,65.1708912 287.773344,64.7208912 285.973344,64.7208912 C284.773344,64.7208912 284.023344,65.3208912 283.723344,66.9708912 C282.823344,71.0208912 279.373344,79.2708912 272.173344,90.8208912 C263.173344,105.370891 262.123344,109.870891 265.273344,113.320891 C268.723344,117.070891 271.873344,118.270891 274.723344,118.270891 C276.523344,118.270891 279.673344,117.370891 283.873344,114.670891 C285.823344,113.320891 291.073344,109.270891 297.373344,102.520891 C293.323344,109.270891 289.423344,115.270891 285.823344,120.670891 C266.923344,123.820891 248.473344,129.070891 238.273344,138.070891 C229.873344,145.570891 229.723344,154.570891 233.473344,159.970891 C236.173344,164.020891 241.123344,167.170891 247.423344,167.170891 Z M241.873344,155.620891 C241.423344,151.420891 245.023344,146.920891 249.973344,143.020891 C256.273344,137.920891 266.173344,133.720891 278.473344,130.420891 C264.523344,148.120891 252.523344,155.770891 241.873344,155.620891 Z" id="Bonsy-Copy"></path>
            <path d="M34.1759703,152.194666 C39.4259703,152.577479 45.7697203,150.444666 53.2072203,145.796229 C64.9103453,138.085291 75.2052671,128.514979 84.0919859,117.085291 C92.9787046,105.655604 98.2423765,94.6907599 99.8830015,84.1907599 C104.531439,81.7298224 114.056887,72.2937415 121.494387,70.5437415 C122.861574,70.1062415 121.31518,69.8049765 121.069086,68.3557578 C120.822992,66.906539 135.537838,48.6080524 134.662838,48.5533649 C129.824455,46.953593 98.8340297,72.4513817 97.4668422,72.9435692 C95.7168422,69.9904442 94.2091734,68.6321661 91.2287046,66.5540411 C88.2482359,64.4759161 85.172064,63.2181036 82.000189,62.7806036 C82.328314,62.5071661 82.6837828,62.1790411 83.0665953,61.7962286 C86.0197203,59.4446661 89.4650328,56.1907599 93.4025328,52.0345099 C97.3400328,47.8782599 100.402533,43.2024786 102.590033,38.0071661 C103.902533,34.1243536 103.615423,30.1731818 101.728705,26.1536505 C99.8419859,22.1341193 96.9982359,18.7024786 93.1974546,15.8587286 C89.3966734,13.0149786 85.2540953,11.4016974 80.7697203,11.0188849 C74.2619078,10.8001349 67.234564,12.4817755 59.687689,16.0638068 C52.140814,19.645838 44.8947203,24.2942755 37.9494078,30.0091193 C31.0040953,35.723963 25.234564,41.6712286 20.640814,47.8509161 C16.047064,54.0306036 13.5040953,59.5813849 13.0119078,64.5032599 C12.8478453,69.5345099 14.3790953,73.348963 17.6056578,75.9466193 C20.8322203,78.5442755 24.2091734,79.8157599 27.7365171,79.7610724 C31.2638609,79.7063849 33.437689,78.2024786 34.2580015,75.2493536 C29.2267515,75.7962286 26.9025328,74.114588 27.2853453,70.2044318 C27.6681578,66.2942755 30.1701109,61.2766974 34.7912046,55.1516974 C39.4122984,49.0266974 45.578314,42.8743536 53.2892515,36.6946661 C49.734564,44.3509161 45.4279234,54.4134161 40.3693296,66.8821661 C35.3107359,79.3509161 31.4142515,89.7415411 28.6798765,98.0540411 C28.1330015,99.9134161 28.2833921,101.499354 29.1310484,102.811854 C29.9787046,104.124354 31.140814,105.136072 32.6173765,105.84701 C33.875189,106.557947 35.1603453,106.858729 36.4728453,106.749354 C37.7853453,106.639979 39.125189,105.737635 40.4923765,104.042322 C41.8048765,102.292322 44.0880796,99.598963 47.3419859,95.9622443 C50.5958921,92.3255255 54.2872984,88.5931036 58.4162046,84.7649786 C62.5451109,80.9368536 66.578314,77.8606818 70.515814,75.536463 C74.453314,73.2122443 77.7619078,72.4602911 80.4415953,73.2806036 C81.5900328,73.7727911 82.3966734,74.6067755 82.8615171,75.7825568 C83.3263609,76.958338 83.5724546,78.0931036 83.5997984,79.1868536 C83.6271421,80.2806036 83.4767515,80.9368536 83.1486265,81.1556036 C74.453314,85.9134161 64.828314,92.6809943 54.2736265,101.458338 C43.718939,110.235682 35.2150328,119.327479 28.7619078,128.733729 C24.4962828,135.569666 23.0197203,141.093104 24.3322203,145.304041 C25.6447203,149.514979 28.9259703,151.811854 34.1759703,152.194666 Z M52.6330015,74.8391974 C54.2736265,71.2298224 56.078314,67.1009161 58.047064,62.4524786 C61.7111265,53.8118536 65.3205015,45.8548224 68.875189,38.5813849 C69.422064,37.4329474 69.3400328,36.3118536 68.6290953,35.2181036 C67.9181578,34.1243536 66.9337828,33.2356818 65.6759703,32.552088 C64.4181578,31.8684943 63.3244078,31.4720099 62.3947203,31.3626349 C67.1525328,28.0813849 72.1290953,25.552088 77.3244078,23.7747443 C82.5197203,21.9974005 86.265814,21.6556036 88.562689,22.7493536 C91.1330015,24.3899786 91.7208921,27.0696661 90.3263609,30.7884161 C88.9318296,34.5071661 86.3615171,38.6907599 82.6154234,43.3391974 C78.8693296,47.9876349 74.781439,52.5950568 70.3517515,57.161463 C65.922064,61.7278693 61.9572203,65.7063849 58.4572203,69.0970099 C55.8322203,71.6126349 53.890814,73.5266974 52.6330015,74.8391974 Z M37.2931578,139.233729 C38.6603453,134.749354 41.7912046,129.677088 46.6857359,124.016932 C51.5802671,118.356776 57.0080015,112.970057 62.968939,107.856776 C68.9298765,102.743494 74.1798765,98.7923224 78.718939,96.0032599 C77.3517515,99.5032599 74.0431578,104.343104 68.7931578,110.522791 C63.5431578,116.702479 57.8966734,122.595057 51.8537046,128.200526 C45.8107359,133.805994 40.9572203,137.483729 37.2931578,139.233729 Z" id="B" transform="translate(73.850188, 81.619178) rotate(11.000000) translate(-73.850188, -81.619178) "></path>
        </g>
    </g>
</svg>