<svg width="341" height="63" viewBox="0 0 341 63" fill="#d374e3" xmlns="http://www.w3.org/2000/svg">
<path d="M54.6 20C54.6 22.8 53.64 28.4 49.96 32.4C53.88 36 55.96 40 55.96 45.2C55.96 55.12 47 62.08 33.64 62.08H11L0.839966 52.96V0H33.72C46.52 0 54.6 8.64 54.6 20ZM31.96 23.52H10.44V8.56H31.96C39.24 8.56 44.92 12.72 44.92 20C44.92 22.16 44.12 24.4 42.92 26.16L48.28 30.88C51.4 27.52 52.44 23.6 52.44 19.92C52.44 9.36 44.84 2.16 33.72 2.16H2.99997V51.36H30.44C39.8 51.36 45.08 46.16 45.08 37.84C45.08 32.96 42.84 28.96 39.64 26.88C41.48 25.28 42.76 22.8 42.76 20C42.76 14.48 38.6 10.72 32.12 10.72H14.36L21.56 17.12H31.96C34.2 17.12 35.32 18.96 35.32 20.32C35.32 21.92 34.04 23.52 31.96 23.52ZM53.8 45.2C53.8 41.12 52.36 37.52 48.52 34.08L45.8 31.76C46.68 33.68 47.24 35.84 47.24 37.92C47.24 48.16 40.28 53.52 30.76 53.52H4.75997L11.96 59.92H33.4C46.52 59.92 53.8 52.88 53.8 45.2ZM10.44 44.96V29.92H29.96C34.36 29.92 37.64 33.12 37.64 37.44C37.64 41.52 34.84 44.96 29.96 44.96H10.44ZM12.6 12.08V21.36H20.04V18.8L12.6 12.08ZM22.2 19.28V21.36H32.12C32.76 21.36 33.16 20.8 33.16 20.32C33.16 19.68 32.68 19.28 32.12 19.28H22.2ZM30.12 32.08H14.36L21.56 38.48H35.4C35.4 38.16 35.48 37.84 35.48 37.44C35.48 34.16 33.16 32.08 30.12 32.08ZM12.6 42.8H20.04V40.16L12.6 33.44V42.8ZM30.12 42.8C32.2 42.8 33.64 41.92 34.52 40.64H22.2V42.8H30.12Z"/>
<path d="M108.179 62H99.2993C83.4593 62 70.6593 49.04 70.6593 30.16C70.6593 11.36 83.7793 0 98.4993 0H107.299C122.259 0 136.019 12 136.019 31.84C136.019 50.64 122.899 62 108.179 62ZM82.4193 29.68C82.4193 42 90.0993 50.8 99.2993 50.8C101.699 50.8 103.939 50.24 106.019 49.12C96.9793 48.24 89.8593 40.64 89.8593 29.12C89.8593 16.24 98.3393 9.04 107.379 9.04C117.939 9.04 126.419 18.96 126.419 32.32C126.419 45.84 119.379 55.84 109.539 60C122.419 59.2 133.859 48.8 133.859 31.84C133.859 12.88 121.059 2.16 107.699 2.16C94.0193 2.16 82.4193 12.4 82.4193 29.68ZM124.259 32.32C124.259 20 116.579 11.2 107.379 11.2C104.979 11.2 102.659 11.84 100.579 12.88C109.619 13.84 116.819 21.36 116.819 32.88C116.819 45.76 108.339 52.96 99.2193 52.96C88.7393 52.96 80.2593 43.04 80.2593 29.68C80.2593 15.76 87.6993 6.08 97.2193 2.08C84.4193 2.72 72.8193 13.2 72.8193 30.16C72.8193 47.2 84.0993 59.84 99.2193 59.84C112.659 59.84 124.259 49.6 124.259 32.32ZM114.659 32.8C114.659 21.2 106.179 14.24 97.6193 14.96C94.2593 18 92.0193 22.88 92.0193 29.2C92.0193 40.88 100.499 47.84 108.979 47.12C112.419 44 114.659 39.12 114.659 32.8Z" />
<path d="M186.373 62L174.053 43.28V52.88L163.893 62H152.693V5.52L158.773 0H171.493L183.333 18.08V9.12L193.493 0H204.693V54.96L196.853 62H186.373ZM195.093 2.16V40.24L170.133 2.16H161.413L194.933 53.2H202.533V2.16H195.093ZM162.293 51.76V21.04L187.093 58.8L192.613 53.92L159.013 2.72L154.853 6.48V58.48L162.293 51.76ZM185.493 10.16V21.36L192.933 32.64V3.44L185.493 10.16ZM164.453 51.28H171.893V40L164.453 28.64V51.28ZM170.133 53.44H163.813L156.693 59.84H162.933L170.133 53.44ZM200.933 55.36H194.293L189.333 59.84H195.973L200.933 55.36Z"/>
<path d="M249.181 62H240.061C229.021 62 221.901 55.2 219.741 47.68L227.901 40.32H239.981C240.621 44.4 243.101 47.44 245.981 48.8C246.621 48.08 246.861 47.28 246.861 46.56C246.861 44.56 245.581 42.72 241.581 40.08L235.101 35.76C227.181 30.48 223.261 24.64 223.261 16.88C223.261 5.52 232.301 0 242.461 0H251.661C262.701 0 269.821 6.8 271.981 14.32L263.821 21.68H251.741C251.021 17.68 248.621 14.64 245.661 13.2C245.101 14 244.861 14.88 244.861 15.68C244.861 17.44 245.821 19.28 250.461 22.32L258.541 27.68C264.221 31.44 268.461 36.56 268.461 44.56C268.461 54.88 259.421 62 249.181 62ZM240.381 52.96C234.301 52.96 229.581 49.12 228.301 42.96L222.221 48.48C224.541 55.04 231.181 59.84 240.061 59.84C249.101 59.84 256.701 54.8 256.701 46.8C256.701 41.68 253.901 37.76 248.541 34.16L240.461 28.8C235.821 25.68 232.861 21.44 232.861 15.44C232.861 9.2 236.701 4.48 242.141 2C233.421 2.16 225.421 6.88 225.421 16.88C225.421 24.16 229.421 29.44 236.781 34.32L243.261 38.64C247.501 41.44 249.021 43.76 249.021 46.56C249.021 49.2 246.701 52.96 240.381 52.96ZM251.341 9.04C257.581 9.04 262.061 12.88 263.341 19.04L269.421 13.6C267.101 6.96 260.461 2.16 251.661 2.16C242.621 2.16 235.021 7.2 235.021 15.44C235.021 20.32 237.501 24.24 242.381 27.52L250.461 32.88C255.581 36.24 258.861 40.56 258.861 46.8C258.861 52.88 255.021 57.52 249.581 60C258.221 59.84 266.301 53.6 266.301 44.56C266.301 37.04 261.981 32.56 256.621 28.96L248.541 23.6C243.901 20.56 242.701 18.24 242.701 15.68C242.701 12.8 245.101 9.04 251.341 9.04ZM251.341 11.2C249.821 11.2 248.541 11.44 247.661 11.84C250.621 13.6 252.621 16.72 253.421 19.52H261.261C260.061 14.08 255.821 11.2 251.341 11.2ZM240.381 50.8C241.821 50.8 243.101 50.56 243.981 50.24C241.021 48.4 239.101 45.36 238.221 42.48H230.461C231.661 48 236.061 50.8 240.381 50.8Z"/>
<path d="M311.907 16.32L322.787 0H334.467L340.787 9.12L321.827 37.6V62H310.627L300.467 52.88V35.28L283.027 9.04L289.267 0H301.107L311.907 16.32ZM306.547 28.16L294.867 10.72H286.627L302.627 34.64V51.84L310.067 58.48V35.2L331.987 2.16H323.827L306.547 28.16ZM319.667 59.84V36.96L338.147 9.2L333.907 3.12L312.227 35.76V59.84H319.667ZM300.867 3.52L296.627 9.52L306.547 24.32L310.627 18.24L300.867 3.52ZM286.067 8.56H294.627L299.027 2.16H290.467L286.067 8.56Z"/>
</svg>
